<svg xmlns="http://www.w3.org/2000/svg" viewBox="0 0 78.53 10.19"><title>ic_nativeroll</title><g id="Layer_2" data-name="Layer 2"><g id="Layer_1-2" data-name="Layer 1"><path fill="#39b772" d="M3.79,2.56a2.54,2.54,0,0,0-1.3.34,2.68,2.68,0,0,0-1,.95l0,0V2.76H0V10H1.6V5.73A2.18,2.18,0,0,1,1.72,5a1.91,1.91,0,0,1,.35-.61A1.58,1.58,0,0,1,2.62,4a1.73,1.73,0,0,1,.73-.15,1.32,1.32,0,0,1,1,.39,2,2,0,0,1,.36,1.24V10h1.6V5a2.36,2.36,0,0,0-.69-1.85A2.71,2.71,0,0,0,3.79,2.56ZM14.9,8.93a.32.32,0,0,1-.3-.13.85.85,0,0,1-.08-.42V4.66a1.79,1.79,0,0,0-.25-1A2,2,0,0,0,13.6,3a3,3,0,0,0-.93-.36,5,5,0,0,0-1-.11,6.13,6.13,0,0,0-1.18.11,3.07,3.07,0,0,0-1,.39,2.32,2.32,0,0,0-.75.74A2.4,2.4,0,0,0,8.33,5h1.6a1.09,1.09,0,0,1,.49-.87,2,2,0,0,1,1.11-.28,3.9,3.9,0,0,1,.5,0,1.58,1.58,0,0,1,.48.14,1,1,0,0,1,.36.3.82.82,0,0,1,.15.5.71.71,0,0,1-.18.53,1.06,1.06,0,0,1-.48.26,3.87,3.87,0,0,1-.69.12,8.19,8.19,0,0,0-.83.12q-.5.06-1,.16a2.91,2.91,0,0,0-.9.34A1.81,1.81,0,0,0,8.31,7a2.15,2.15,0,0,0-.24,1.09,2,2,0,0,0,.2.93,1.88,1.88,0,0,0,.55.66,2.46,2.46,0,0,0,.79.39,3.28,3.28,0,0,0,.94.13A4.6,4.6,0,0,0,11.88,10,2.82,2.82,0,0,0,13,9.31a1,1,0,0,0,.42.69,1.54,1.54,0,0,0,.81.2h.24l.28,0,.27-.06.22-.06V8.9l-.22,0Zm-2-1.37a1.08,1.08,0,0,1-.18.64,1.53,1.53,0,0,1-.46.43,1.91,1.91,0,0,1-.58.24,2.59,2.59,0,0,1-.57.07,3,3,0,0,1-.47,0,1.72,1.72,0,0,1-.48-.15,1.12,1.12,0,0,1-.37-.29A.67.67,0,0,1,9.66,8a1.2,1.2,0,0,1,.11-.52.92.92,0,0,1,.29-.35,1.48,1.48,0,0,1,.42-.21A3.43,3.43,0,0,1,11,6.8q.53-.1,1.06-.15a1.94,1.94,0,0,0,.9-.29Zm5.81-7h-1.6V2.76h-1.2V3.95h1.2V8.22a4.35,4.35,0,0,0,.09.8,1.21,1.21,0,0,0,.29.58,1.35,1.35,0,0,0,.6.35,3.54,3.54,0,0,0,1,.12l.52,0,.52-.06V8.75a1.66,1.66,0,0,1-.34,0H19.5a1.14,1.14,0,0,1-.42-.06.47.47,0,0,1-.23-.19.75.75,0,0,1-.1-.31,3.86,3.86,0,0,1,0-.43V3.95h1.44V2.76H18.73ZM21.78,10h1.6V2.76h-1.6Zm0-8.48h1.6V0h-1.6Zm6.64,6.8h0L26.56,2.76H24.82L27.45,10h1.79l2.59-7.24H30.18ZM39,3.86a3.37,3.37,0,0,0-1.13-.95,3.24,3.24,0,0,0-1.53-.36A3.28,3.28,0,0,0,33.82,3.7a3.74,3.74,0,0,0-.7,1.22,4.36,4.36,0,0,0-.24,1.46,4.89,4.89,0,0,0,.23,1.54,3.33,3.33,0,0,0,.69,1.2,3.12,3.12,0,0,0,1.11.78,3.83,3.83,0,0,0,1.51.28A3.93,3.93,0,0,0,37.54,10a3.2,3.2,0,0,0,1-.48,3,3,0,0,0,1.18-1.83H38.18a1.78,1.78,0,0,1-.64.9,1.92,1.92,0,0,1-1.13.3,2,2,0,0,1-.87-.17,1.72,1.72,0,0,1-.6-.47,2,2,0,0,1-.36-.69,2.78,2.78,0,0,1-.12-.81h5.32a4.15,4.15,0,0,0-.11-1.58A3.83,3.83,0,0,0,39,3.86ZM34.47,5.74A2.12,2.12,0,0,1,34.63,5,2,2,0,0,1,35,4.38,1.74,1.74,0,0,1,35.61,4a1.92,1.92,0,0,1,.76-.15,1.65,1.65,0,0,1,.73.16,1.81,1.81,0,0,1,.56.42A2,2,0,0,1,38,5a2.58,2.58,0,0,1,.16.73Zm10.6-3.18a1.91,1.91,0,0,0-.71.14,2.47,2.47,0,0,0-.64.37,2.66,2.66,0,0,0-.49.51,1.62,1.62,0,0,0-.27.57h0V2.76h-1.5V10H43V6.55a3.36,3.36,0,0,1,.15-1.06,2.33,2.33,0,0,1,.42-.78,1.75,1.75,0,0,1,.62-.48A1.84,1.84,0,0,1,45,4.07l.34,0,.34,0V2.6l-.22,0Zm7.47,1.08a3.3,3.3,0,0,0-1.15-.79,4.31,4.31,0,0,0-3.09,0,3.3,3.3,0,0,0-1.15.79,3.38,3.38,0,0,0-.71,1.2,4.59,4.59,0,0,0-.24,1.53,4.63,4.63,0,0,0,.24,1.54,3.38,3.38,0,0,0,.71,1.2,3.3,3.3,0,0,0,1.15.79,4.31,4.31,0,0,0,3.09,0,3.3,3.3,0,0,0,1.15-.79,3.38,3.38,0,0,0,.71-1.2,4.64,4.64,0,0,0,.24-1.54,4.59,4.59,0,0,0-.24-1.53A3.39,3.39,0,0,0,52.54,3.64ZM51.78,7.3a2.57,2.57,0,0,1-.37.82,2,2,0,0,1-.64.59,2,2,0,0,1-1.85,0,1.94,1.94,0,0,1-.64-.59,2.56,2.56,0,0,1-.37-.82,3.67,3.67,0,0,1,0-1.85,2.47,2.47,0,0,1,.37-.82A2,2,0,0,1,48.92,4a2,2,0,0,1,1.85,0,2,2,0,0,1,.64.58,2.48,2.48,0,0,1,.37.82,3.68,3.68,0,0,1,0,1.85ZM55.29,10h1.6V0h-1.6Zm3.79,0h1.6V0h-1.6ZM63,10H64.9V8.11H63ZM69.22.59h-1.6V2.76h-1.2V3.95h1.2V8.22a4.34,4.34,0,0,0,.09.8A1.2,1.2,0,0,0,68,9.6a1.35,1.35,0,0,0,.6.35,3.54,3.54,0,0,0,1,.12l.52,0,.52-.06V8.75a1.66,1.66,0,0,1-.34,0H70a1.14,1.14,0,0,1-.42-.06.47.47,0,0,1-.23-.19.75.75,0,0,1-.1-.31,3.84,3.84,0,0,1,0-.43V3.95h1.44V2.76H69.22Zm7.66,2.17L75.11,8.32h0L73.25,2.76H71.51L74.14,10h1.79l2.59-7.24Z" /></g></g></svg>