<?xml version="1.0" encoding="utf-8"?>
<svg version="1.1" id="Layer_1" xmlns="http://www.w3.org/2000/svg" xmlns:xlink="http://www.w3.org/1999/xlink" x="0px" y="0px" viewBox="0 0 36 36" style="fill:#fff" xml:space="preserve"><title>twitter</title><g id="Layer_2"><g id="Layer_1-2"><path id="twitter" d="M29,11.2c-0.8,0.4-1.7,0.6-2.6,0.7c1-0.6,1.7-1.4,2-2.5c-0.9,0.5-1.9,0.9-2.9,1.1c-1.7-1.8-4.6-1.9-6.4-0.2
			c-0.9,0.9-1.4,2-1.4,3.3c0,0.3,0,0.7,0.1,1c-3.6-0.2-7-1.9-9.3-4.7c-0.4,0.7-0.6,1.5-0.6,2.3c0,1.5,0.7,2.9,2,3.8
			c-0.7,0-1.4-0.2-2-0.5l0,0c0,2.2,1.5,4,3.6,4.4c-0.4,0.1-0.8,0.2-1.2,0.2c-0.3,0-0.6,0-0.8-0.1c0.6,1.9,2.2,3.1,4.2,3.2
			c-1.6,1.2-3.6,1.9-5.6,1.9c-0.4,0-0.7,0-1.1-0.1c2.1,1.3,4.5,2,6.9,2c7,0,12.8-5.6,12.8-12.7c0-0.1,0-0.1,0-0.2c0-0.2,0-0.4,0-0.6
			C27.6,12.8,28.4,12.1,29,11.2z" /></g></g></svg>