<?xml version="1.0" encoding="utf-8"?>
<svg version="1.1" id="Layer_1" xmlns="http://www.w3.org/2000/svg" xmlns:xlink="http://www.w3.org/1999/xlink" x="0px" y="0px" viewBox="0 0 36 36" style="fill:#fff" xml:space="preserve"><title>Asset 11</title><g id="Layer_2"><g id="Layer_1-2"><path d="M25.9,17.9c0,0,3.1-4.4,3.5-5.9c0.1-0.5-0.1-0.8-0.7-0.8H26c-0.4,0-0.9,0.2-1,0.7c-0.9,1.8-2,3.6-3.3,5.1
			c-0.6,0.6-0.9,0.8-1.2,0.8S20,17.6,20,17v-5.1c0-0.7,0-0.9-0.6-0.9H15c-0.3,0-0.5,0.2-0.5,0.4c0,0,0,0,0,0c0,0.7,1,0.8,1,2.6v3.7
			c0,0.8,0,1-0.4,1c-0.9,0-3.2-3.2-4.4-6.8c-0.2-0.8-0.5-1-1.2-1H6.7c-0.4,0-0.7,0.3-0.7,0.6c0,0,0,0,0,0.1c0,0.7,0.9,4.1,4.2,8.6
			c2.3,3,5.2,4.7,7.9,4.7c1.6,0,2-0.3,2-1v-2.3c0-0.6,0.2-0.8,0.6-0.8c0.3,0,1,0.1,2.6,1.7c1.8,1.8,2,2.5,3,2.5h3.1
			c0.3,0,0.6-0.1,0.6-0.7c0-0.7-0.9-1.9-2.3-3.4c-0.6-0.8-1.5-1.6-1.8-2S25.6,18.3,25.9,17.9z" /></g></g></svg>