<?xml version="1.0" encoding="utf-8"?>
<svg version="1.1" id="Layer_1" xmlns="http://www.w3.org/2000/svg" xmlns:xlink="http://www.w3.org/1999/xlink" x="0px" y="0px" viewBox="0 0 36 36" style="fill:#fff" xml:space="preserve"><title>facebook</title><g id="Layer_2"><g id="Layer_1-2"><path id="facebook" d="M26.8,8H9.1C8.5,8,8,8.5,8,9.1v17.7c0,0.6,0.5,1.1,1.1,1.1H19v-8h-3v-3h3v-2c-0.2-2,1.3-3.8,3.3-4
			c0.2,0,0.4,0,0.7,0h2v3h-1.5c-1.3,0-1.5,0.6-1.5,1.5V17h3v3h-3v8h4.9c0.6,0,1.1-0.5,1.1-1.1V9.1C27.9,8.5,27.4,8,26.8,8z" /></g></g></svg>