<?xml version="1.0" encoding="utf-8"?>
<svg version="1.1" id="Layer_1" xmlns="http://www.w3.org/2000/svg" xmlns:xlink="http://www.w3.org/1999/xlink" x="0px" y="0px" viewBox="0 0 36 36" style="fill:#fff" xml:space="preserve"><title>Asset 14</title><g id="Layer_2_2_"><g id="Layer_1-2_2_"><path id="google__2_" d="M14.5,15.8v2.9h4.8c-0.5,2.3-2.5,3.8-4.8,3.6c-2.9,0-5.3-2.4-5.2-5.3c0-2.9,2.3-5.3,5.2-5.4
			c1.3,0,2.5,0.4,3.4,1.3l2.3-2.2c-1.5-1.4-3.6-2.2-5.7-2.2c-4.7,0-8.4,3.8-8.4,8.4s3.8,8.5,8.4,8.5c4.9,0,8.1-3.4,8.1-8.3
			c0-0.5,0-0.9-0.1-1.4L14.5,15.8z M30.3,15.8v-2.4h-2.4v2.4h-2.4v2.4h2.4v2.4h2.4v-2.4h2.4v-2.4H30.3z" /></g></g></svg>