<svg xmlns="http://www.w3.org/2000/svg" viewBox="0 0 9 7.93"><defs><style>.cls-1{fill:#5f4a80}.cls-2{fill:#39b772}</style></defs><title>Asset 9</title><g id="Layer_2" data-name="Layer 2"><g id="Layer_1-2" data-name="Layer 1"><path class="cls-1" d="M5.27,0A2.72,2.72,0,0,0,2.84,1.36,1.31,1.31,0,0,0,2.18.21,3,3,0,0,0,0,.21V1.34s1-.09,1,.58v6H3V3.51a1.67,1.67,0,0,1,1.53-1.7,1.35,1.35,0,0,1,1.25.69L7.31.92A3,3,0,0,0,5.27,0Z" /><path class="cls-2" d="M8,5.77V3A3.05,3.05,0,0,0,7.26.86L5.72,2.41A2.45,2.45,0,0,1,6,3.69V5.93C6,7.93,8.5,8,9,7.71V6.55A.92.92,0,0,1,8,5.77Z" /></g></g></svg>