<svg xmlns="http://www.w3.org/2000/svg" viewBox="0 0 12 12"><path fill="#000" fill-rule="evenodd" d="M3.148 12a3.203 3.203 0 01-2.228-.879 2.918 2.918 0 010-4.255L7.438.64c.932-.89 2.382-.85 3.37.095.99.944 1.032 2.327.1 3.218L4.783 9.802a1.528 1.528 0 01-2.087 0 1.367 1.367 0 010-1.993l4.148-3.96a.37.37 0 01.507 0 .33.33 0 010 .482L3.204 8.293a.702.702 0 000 1.025.784.784 0 001.073 0l6.124-5.847c.644-.615.6-1.582-.099-2.252-.7-.668-1.714-.708-2.358-.093L1.426 7.35a2.258 2.258 0 000 3.288c.458.438 1.07.678 1.722.678.653 0 1.264-.24 1.723-.678l6.518-6.224a.37.37 0 01.506 0 .33.33 0 010 .483l-6.518 6.224A3.203 3.203 0 013.148 12z"/></svg>