<svg xmlns="http://www.w3.org/2000/svg" fill="none" viewBox="0 0 1161 402"><path fill="#fff" d="M175.74 148v198.881H139.4V179.253H36.34v167.628H0V148h175.74zM311.842 193.459c14.763 0 27.918 3.22 39.464 9.66 11.735 6.44 20.914 15.531 27.539 27.275 6.625 11.743 9.937 25.286 9.937 40.628 0 15.343-3.312 28.98-9.937 40.913-6.625 11.744-15.804 20.835-27.539 27.275-11.546 6.44-24.701 9.66-39.464 9.66-20.441 0-36.624-6.819-48.549-20.456V402h-35.488V195.163h33.785v19.888c5.868-7.197 13.06-12.595 21.577-16.194 8.707-3.599 18.265-5.398 28.675-5.398zm-3.975 125.011c13.06 0 23.754-4.357 32.082-13.07 8.518-8.712 12.776-20.172 12.776-34.378 0-14.205-4.258-25.665-12.776-34.378-8.328-8.713-19.022-13.069-32.082-13.069-8.517 0-16.182 1.989-22.996 5.966-6.814 3.789-12.208 9.282-16.183 16.479-3.975 7.198-5.962 15.532-5.962 25.002 0 9.471 1.987 17.805 5.962 25.003 3.975 7.197 9.369 12.785 16.183 16.762 6.814 3.789 14.479 5.683 22.996 5.683zM566.057 271.875c0 2.462-.189 5.966-.568 10.512H446.531c2.082 11.175 7.476 20.078 16.183 26.707 8.896 6.44 19.874 9.66 32.933 9.66 16.656 0 30.379-5.493 41.167-16.479l19.022 21.877c-6.813 8.145-15.425 14.301-25.835 18.468s-22.145 6.25-35.205 6.25c-16.656 0-31.325-3.314-44.006-9.944-12.682-6.629-22.524-15.816-29.527-27.559-6.814-11.933-10.221-25.381-10.221-40.345 0-14.774 3.312-28.032 9.937-39.776 6.814-11.933 16.183-21.214 28.107-27.843 11.924-6.63 25.363-9.944 40.315-9.944 14.764 0 27.918 3.314 39.464 9.944 11.735 6.44 20.82 15.626 27.255 27.559 6.625 11.743 9.937 25.381 9.937 40.913zm-76.656-50.005c-11.356 0-21.009 3.41-28.958 10.228-7.761 6.63-12.493 15.532-14.196 26.707h86.025c-1.514-10.985-6.152-19.888-13.912-26.707-7.76-6.818-17.413-10.228-28.959-10.228zM753.926 346.881V246.304l-51.104 84.667h-15.331l-50.252-84.951v100.861h-32.366V195.163h37.192l53.943 94.895 56.498-94.895h33.218l.284 151.718h-32.082zM833.609 195.163h35.489v100.009l83.754-100.009h32.365v151.718h-35.488V246.872l-83.47 100.009h-32.65V195.163zM1161 195.163v151.718h-31.8v-45.742h-40.03l-30.95 45.742h-38.04l35.77-50.572c-10.97-3.789-19.4-9.566-25.26-17.331-5.68-7.956-8.52-17.71-8.52-29.264 0-17.426 6.15-30.874 18.45-40.345 12.3-9.47 29.24-14.206 50.82-14.206H1161zm-68.42 29.833c-22.9 0-34.36 8.618-34.36 25.854 0 17.047 11.08 25.571 33.22 25.571h37.76v-51.425h-36.62zM834 148V19.27l41.04 43.168L910 0l34.96 62.438L986 20.041V148H834z"/></svg>