<?xml version="1.0" encoding="utf-8"?>
<svg version="1.1" id="Layer_1" xmlns="http://www.w3.org/2000/svg" xmlns:xlink="http://www.w3.org/1999/xlink" x="0px" y="0px" viewBox="0 0 36 36" style="fill:#fff" xml:space="preserve"><title>Asset 10</title><g id="Layer_2"><g id="Layer_1-2"><path d="M18,17.6c3.6,0,6.4-2.9,6.4-6.4c0-3.6-2.9-6.4-6.4-6.4c-3.6,0-6.4,2.9-6.4,6.4C11.6,14.7,14.4,17.6,18,17.6
			C18,17.6,18,17.6,18,17.6z M18,8c1.8,0,3.2,1.4,3.2,3.2s-1.4,3.2-3.2,3.2c-1.8,0-3.2-1.4-3.2-3.2l0,0C14.8,9.4,16.3,8,18,8z
			 M25.4,18.4c-0.4-0.7-1.4-1.3-2.7-0.3c-1.4,0.9-3,1.4-4.7,1.4c-1.7,0-3.3-0.5-4.7-1.4c-1.3-1.1-2.4-0.5-2.7,0.3
			c-0.6,1.3,0.1,1.9,1.7,2.9c1.4,0.8,2.9,1.2,4.5,1.3l-1,1L12,27.5c-0.6,0.6-0.6,1.5,0,2.1l0.2,0.2c0.6,0.6,1.5,0.6,2.1,0l3.8-3.8
			l3.8,3.8c0.6,0.6,1.5,0.6,2.1,0l0.2-0.2c0.6-0.6,0.6-1.5,0-2.1l-3.8-3.7l-1-1c1.6-0.1,3.1-0.6,4.5-1.3
			C25.3,20.3,26.1,19.7,25.4,18.4L25.4,18.4z" /></g></g></svg>