<svg xmlns="http://www.w3.org/2000/svg" viewBox="0 0 44 48"><g fill="#666" fill-rule="evenodd"><path d="M33.844 11h-8.95v8.55h-5.553V11h-9.186C8.965 11 8 11.965 8 13.156v23.688C8 38.035 8.965 39 10.155 39h23.69c1.19 0 2.155-.965 2.155-2.156V13.166A2.158 2.158 0 0033.844 11"/><path d="M21.623 43.98l-5.62-3.188a.438.438 0 00-.658.371v1.741h-8.32c-2.252 0-4.076-1.79-4.076-4V24.05H0v14.856c0 3.804 3.139 6.885 7.015 6.885h8.32v1.74c0 .333.369.538.658.372l5.62-3.188c.299-.157.299-.567.01-.734M36.93 2.28h-8.385V.45a.442.442 0 00-.663-.389L22.22 3.394a.454.454 0 000 .776l5.663 3.332a.442.442 0 00.663-.388v-1.83h8.385c2.27 0 4.108 1.881 4.108 4.18V25H44V9.475c0-3.976-3.173-7.196-7.07-7.196"/></g></svg>