<svg xmlns="http://www.w3.org/2000/svg" viewBox="0 0 47 41"><g fill="#666" fill-rule="evenodd"><path d="M38.685 22.503v9.109l-15.11 4.502V4.93l4.13 1.23a11.936 11.936 0 012.429-3.654L22.078.11l-.116-.028-.117-.03a2.012 2.012 0 00-.758 0l-.116.03c-.04.01-.078.01-.117.028L16.52 1.4l-4.295 1.279v10.715l-4.781.895V4.093l-4.18 1.24-1.758.52a2.094 2.094 0 00-1.506 2v25.298c0 .923.612 1.741 1.506 2l19.338 5.762a2.181 2.181 0 001.224 0l19.338-5.761a2.096 2.096 0 001.507-2.001V21.733c-1.303.491-2.712.77-4.189.77h-.039z"/><path d="M38.6 13.393l-1.716 1.61-1.706-1.62-1.644-1.562 1.716-1.611 1.644 1.562 3.942-3.703 1.706 1.62-3.942 3.704zM38.038 3.1c-4.943 0-8.936 3.781-8.936 8.44 0 4.668 4.004 8.44 8.936 8.44 4.933 0 8.937-3.782 8.937-8.44 0-4.659-4.004-8.44-8.937-8.44z"/></g></svg>