<svg xmlns="http://www.w3.org/2000/svg" viewBox="0 0 50 49"><g fill="#666" fill-rule="evenodd"><path d="M32.182 32.17c-4.241 4.235-11.122 4.235-15.363 0s-4.241-11.105 0-15.34c4.24-4.235 11.122-4.235 15.363 0 4.24 4.244 4.24 11.105 0 15.34zm5.57 2.827a2.294 2.294 0 001.854-2.887l-.252-.865a2.282 2.282 0 01.907-2.515l.745-.513a2.288 2.288 0 00.413-3.41l-.604-.674a2.29 2.29 0 01-.282-2.656l.443-.785a2.29 2.29 0 00-1.108-3.249l-.836-.342a2.307 2.307 0 01-1.41-2.273l.06-.895c.1-1.369-1.038-2.515-2.408-2.445l-.897.05a2.29 2.29 0 01-2.256-1.438l-.332-.835a2.293 2.293 0 00-3.234-1.157l-.786.433a2.302 2.302 0 01-2.66-.322l-.664-.614a2.284 2.284 0 00-3.416.362l-.523.735a2.292 2.292 0 01-2.529.865l-.866-.262a2.285 2.285 0 00-2.922 1.801l-.15.885a2.298 2.298 0 01-1.905 1.871l-.886.14a2.294 2.294 0 00-1.854 2.888l.252.865a2.282 2.282 0 01-.907 2.515l-.745.513a2.288 2.288 0 00-.414 3.41l.605.674c.655.734.766 1.8.282 2.656l-.443.785a2.29 2.29 0 001.108 3.249l.836.342a2.306 2.306 0 011.41 2.273l-.06.895c-.1 1.368 1.038 2.515 2.408 2.445l.897-.05a2.292 2.292 0 012.256 1.438l.332.835a2.293 2.293 0 003.234 1.157l.786-.433a2.304 2.304 0 012.66.322l.664.614a2.284 2.284 0 003.416-.362l.524-.734a2.293 2.293 0 012.528-.866l.867.262a2.285 2.285 0 002.92-1.8l.152-.886a2.299 2.299 0 011.904-1.87l.886-.142zM11.26 11.263l.126-.02.021-.127a5.898 5.898 0 012.504-3.851L6.938.356C6.43-.146 5.554.21 5.554.921L5.512 5.81.83 5.726c-.73-.01-1.11.858-.592 1.371l6.91 6.846c.01-.01.01-.032.021-.042a5.978 5.978 0 014.09-2.638M49.671 42.451l-6.845-6.417c-.01.01-.01.03-.021.04-.91 1.334-2.386 2.237-4.05 2.482l-.126.02-.021.117c-.273 1.472-1.173 2.767-2.481 3.611l6.908 6.476c.503.47 1.372.137 1.372-.53l.042-4.582 4.636.078c.722.01 1.089-.814.586-1.295"/><path d="M26.597 20.698l-1.715-4.116c-.32-.776-1.443-.776-1.764 0l-1.714 4.116-4.522.324c-.852.059-1.193 1.1-.542 1.64l3.47 2.87-1.084 4.312c-.2.815.702 1.454 1.424 1.011L24 28.507l3.85 2.348c.722.443 1.634-.206 1.423-1.011l-1.082-4.313 3.469-2.868c.651-.54.31-1.582-.542-1.64l-4.521-.325z"/></g></svg>