<svg xmlns="http://www.w3.org/2000/svg" viewBox="0 0 52 25"><path fill="#666" fill-rule="evenodd" d="M50.432 10.51c0-1.683-1.384-3.12-3.12-3.12l-4.143-.362L39.506 1.5c-.064-.064-.064-.117-.117-.18A3.14 3.14 0 0036.866 0h-22.64c-1.565 0-2.885 1.203-3.066 2.704H1.257C.597 2.704 0 3.248 0 3.961c0 .66.543 1.257 1.257 1.257h11.532a1.228 1.228 0 011.075 1.203c0 .66-.543 1.257-1.256 1.257H4.259c-.66 0-1.256.542-1.256 1.256 0 .66.543 1.257 1.256 1.257h12.427c.66 0 1.257.542 1.257 1.256 0 .66-.543 1.256-1.257 1.256H7.86c-.66 0-1.257.544-1.257 1.257 0 .66.543 1.256 1.257 1.256h3.237c-.778.182-1.32.906-1.32 1.747v2.279c0 .958.777 1.8 1.8 1.8h2.523c.543 1.98 2.406 3.482 4.568 3.482 2.162 0 4.025-1.406 4.558-3.44h15.61c.544 1.98 2.407 3.482 4.568 3.482 2.162 0 4.026-1.438 4.569-3.482h2.226c.958 0 1.8-.777 1.8-1.8v-2.279c.052-1.086-.671-1.873-1.566-1.927V10.51z"/></svg>