<svg xmlns="http://www.w3.org/2000/svg" viewBox="0 0 47 44"><g fill="#666" fill-rule="evenodd"><path d="M45.967 27.679c-1.378-.95-2.132-2.29-2.55-3.465C45.66 21.659 47 18.41 47 14.867 47 6.655 39.777 0 30.87 0 22.93 0 16.34 5.285 15 12.254a18.62 18.62 0 012.346-.147c9.968 0 18.122 7.517 18.522 16.893 1.34-.402 2.597-.96 3.76-1.654 2.271 1.429 4.729 1.38 6.162 1.175.41-.05.521-.607.177-.842"/><path d="M15.981 41.162c-2.578 0-5.092-.661-7.247-1.907l-.706-.413-.696.422a6.322 6.322 0 01-2.39.844 7.68 7.68 0 00.978-1.898l.292-.815-.574-.633c-1.882-2.08-2.88-4.582-2.88-7.238 0-6.413 5.929-11.619 13.214-11.619 7.284 0 13.223 5.225 13.223 11.639 0 6.413-5.929 11.618-13.214 11.618m0-26.066C7.171 15.096 0 21.576 0 29.544c0 3.029 1.063 5.991 3.002 8.436a4.458 4.458 0 01-1.44 1.61 1.84 1.84 0 00-.772 1.927c.16.738.754 1.294 1.497 1.4.509.077 1.035.105 1.553.105 1.534 0 2.956-.316 4.216-.93A17.284 17.284 0 0015.981 44c8.81 0 15.981-6.48 15.981-14.447 0-7.967-7.172-14.457-15.98-14.457"/><path d="M16.508 26c.814.008 1.484-.665 1.492-1.488A1.494 1.494 0 0016.516 23c-.83 0-1.508.657-1.516 1.488 0 .824.67 1.504 1.508 1.512M19.587 35.994c-.17.073-.33.207-.5.28a2.576 2.576 0 01-.662.208c-.274.031-.472-.124-.538-.415a2.324 2.324 0 01-.057-.675c.047-.468.132-.924.208-1.391.226-1.392.472-2.783.69-4.184.056-.374.122-.758.113-1.142-.01-.457-.255-.675-.671-.675h-3.364c-.133 0-.274.01-.406.032-.255.051-.379.186-.398.404a.463.463 0 00.312.488c.19.072.388.093.586.125.454.072.605.249.605.758 0 .082-.01.155-.019.238-.189 1.225-.396 2.44-.586 3.665-.104.706-.208 1.401-.293 2.108-.132 1.027.775 2.003 1.484 2.107.425.062.86.083 1.295.072.926-.01 1.7-.446 2.353-1.162.113-.125.207-.301.245-.467.076-.29-.132-.489-.397-.374"/></g></svg>