<svg xmlns="http://www.w3.org/2000/svg" viewBox="0 0 489.604 489.604"><g fill="#D9D9D9"><path d="M262.746 250.826c10.223 2.382 20.56-3.992 22.927-14.345 1.119-4.895.146-9.741-2.172-13.775l9.212-37.695 11.506 2.817a7.977 7.977 0 007.021-1.649 7.926 7.926 0 002.818-6.639l-5.251-76.983a4.29 4.29 0 00-3.262-3.873 4.297 4.297 0 00-4.672 1.938l-40.16 65.879a7.982 7.982 0 00-.571 7.189 8.025 8.025 0 005.488 4.697l11.5 2.808-7.808 31.901-40.158-9.239-45.246-66.268c-5.409-7.929-13.472-8.473-23.134-8.473V279.24h22.958v171.363H137.84V329.902h-16.721v120.702H75.216V279.241h22.945V129.117c-11.074 0-20.128 1.233-24.734 11.32L9.648 280.135c-4.381 9.607-.159 20.943 9.473 25.328 9.553 4.378 20.925.191 25.331-9.456l30.813-67.509v34.695h-.049c-8.865 0-16.045 7.184-16.045 16.048v171.363c0 8.863 7.181 16.048 16.045 16.048 0 12.672 10.271 22.952 22.945 22.952 12.668 0 22.958-10.28 22.958-22.952 3.054 0 5.92-.863 8.367-2.352a15.934 15.934 0 008.354 2.352c0 12.672 10.271 22.952 22.945 22.952 12.668 0 22.958-10.28 22.958-22.952 8.865 0 16.045-7.185 16.045-16.048V279.241c0-8.865-7.18-16.048-16.045-16.048h-.05V205.09l18.097 26.511a19.089 19.089 0 0011.5 7.856l49.456 11.369z"/><path d="M114.225 129.117h30.527v64.535h-30.527zM84.817 76.286c.257 24.469 20.129 44.23 44.669 44.23 24.527 0 44.418-19.761 44.673-44.23 8.653-.231 15.644-7.247 15.644-15.975C189.803 27.056 162.732 0 129.486 0 96.209 0 69.15 27.056 69.15 60.311c0 8.729 6.997 15.744 15.667 15.975zm12.572-46.319v4.545a8.018 8.018 0 008.02 8.023c4.429 0 8.014-3.593 8.014-8.023V19.161c2.58-1.001 5.251-1.792 8.031-2.307v17.658a8.02 8.02 0 008.033 8.023c4.417 0 8.018-3.593 8.018-8.023V16.854a44.034 44.034 0 018.014 2.307v15.351a8.02 8.02 0 008.032 8.023c4.429 0 8.032-3.593 8.032-8.023v-4.545c7.489 7.929 12.157 18.561 12.157 30.344H85.201c0-11.783 4.674-22.415 12.188-30.344zM345.291 435.467h-98.973a8.015 8.015 0 00-8.032 8.023v35.872a8.018 8.018 0 008.032 8.022h98.973c4.411 0 8.013-3.589 8.013-8.022V443.49c0-4.438-3.602-8.023-8.013-8.023zM473.671 435.467h-98.973a8.015 8.015 0 00-8.032 8.023v35.872a8.017 8.017 0 008.032 8.022h98.973c4.411 0 8.014-3.589 8.014-8.022V443.49c0-4.438-3.603-8.023-8.014-8.023zM473.671 307.078h-98.973a8.022 8.022 0 00-8.032 8.027v35.869a8.015 8.015 0 008.032 8.026h98.973c4.411 0 8.014-3.584 8.014-8.026v-35.869c0-4.434-3.603-8.027-8.014-8.027zM345.291 307.078h-98.973a8.022 8.022 0 00-8.032 8.027v35.869a8.015 8.015 0 008.032 8.026h98.973c4.411 0 8.013-3.584 8.013-8.026v-35.869c0-4.434-3.602-8.027-8.013-8.027zM302.473 379.295v35.878a8.018 8.018 0 008.032 8.022h98.973c4.417 0 8.02-3.59 8.02-8.022v-35.878c0-4.433-3.603-8.026-8.02-8.026h-98.973a8.021 8.021 0 00-8.032 8.026zM302.473 250.913v35.869a8.015 8.015 0 008.032 8.026h98.973a8.024 8.024 0 008.02-8.026v-35.869c0-4.432-3.603-8.025-8.02-8.025h-98.973a8.02 8.02 0 00-8.032 8.025zM473.671 371.269h-37.475c-4.43 0-8.014 3.593-8.014 8.026v35.878a8.014 8.014 0 008.014 8.022h37.475c4.411 0 8.014-3.59 8.014-8.022v-35.878c0-4.433-3.603-8.026-8.014-8.026zM473.671 242.888h-37.475c-4.43 0-8.014 3.593-8.014 8.025v35.869a8.01 8.01 0 008.014 8.026h37.475c4.411 0 8.014-3.583 8.014-8.026v-35.869c0-4.432-3.603-8.025-8.014-8.025z"/></g></svg>