<svg xmlns="http://www.w3.org/2000/svg" viewBox="0 0 933 797"><path fill="#D9D9D9" fill-rule="nonzero" d="M861.168 76.87H798.57v52.77c0 37.742-32.16 68.302-71.833 68.302-39.692 0-71.832-30.56-71.832-68.303V76.87H538.332v52.77c0 37.742-32.119 68.302-71.832 68.302-39.713 0-71.832-30.56-71.832-68.303V76.87H278.094v52.77c0 37.742-32.14 68.302-71.832 68.302-39.672 0-71.833-30.56-71.833-68.303V76.87H71.832c-19.045 0-37.311 7.182-50.795 19.984C7.573 109.675 0 127.044 0 145.174v583.523C0 766.439 32.16 797 71.832 797h789.336C900.88 797 933 766.44 933 728.697V145.173c0-37.722-32.12-68.303-71.832-68.303zm-71.833 215.858v99.04H653.798v-99.04h135.537zm-478.013 129.58H450.43v93.908H311.322v-93.907zm-32.1 93.869H143.686v-93.908h135.558l-.02 93.908zm171.229 30.54v113.677H311.342V546.718h139.109zm32.14 0h139.067v113.677H482.59V546.718zm0-30.54v-93.908h139.067v93.908H482.59zm171.186-93.868h135.538v93.907H653.777v-93.907zM621.7 292.728v99.04H482.59v-99.04H621.7zm-171.248 0v99.04H311.342v-99.06l139.109.02zm-171.228-.02v99.06H143.685v-99.06h135.538zm-135.538 254.01h135.558v113.676H143.685V546.718zm510.092 113.676V546.718h135.538v113.676H653.777zM165.214 129.639V39.03c0-21.544 18.39-39.03 41.048-39.03 22.678 0 41.047 17.486 41.047 39.03v90.61c0 21.544-18.369 39.03-41.047 39.03-22.638 0-41.048-17.486-41.048-39.03zm260.239 0V39.03C425.453 17.486 443.842 0 466.5 0c22.658 0 41.047 17.486 41.047 39.03v90.61c0 21.544-18.389 39.03-41.047 39.03-22.658 0-41.047-17.486-41.047-39.03zm260.259 0V39.03C685.712 17.486 704.1 0 726.759 0c22.658 0 41.047 17.486 41.047 39.03v90.61c0 21.544-18.389 39.03-41.047 39.03-22.7 0-41.047-17.486-41.047-39.03z"/></svg>