<svg xmlns="http://www.w3.org/2000/svg" fill="none" viewBox="0 0 24 20"><path fill="#fff" d="M4.451 0c.47 0 .88.323.987.772l.783 2.768h15.818a1.016 1.016 0 01.987 1.262l-1.899 7.68c-.112.454-.52.772-.987.772H7.989c-.47 0-.88-.322-.99-.78l.005.016L3.662 2.035H1.017a1.017 1.017 0 010-2.035h3.434zM20.74 5.576H6.791l1.982 5.643h10.57l1.396-5.643zM9.258 14.32a2.842 2.842 0 012.838 2.84A2.842 2.842 0 019.258 20a2.842 2.842 0 01-2.839-2.84 2.842 2.842 0 012.839-2.84zm0 1.559a1.28 1.28 0 100 2.562 1.28 1.28 0 000-2.562zM18.713 14.32a2.842 2.842 0 012.839 2.84A2.842 2.842 0 0118.713 20a2.842 2.842 0 01-2.838-2.84 2.842 2.842 0 012.838-2.84zm0 1.559a1.281 1.281 0 100 2.562 1.281 1.281 0 000-2.562z"/></svg>