<svg xmlns="http://www.w3.org/2000/svg" viewBox="0 0 25 20"><g fill="#000" fill-rule="evenodd"><path d="M9.389 12.247h11.77c.433 0 .783.343.783.767s-.35.768-.783.768H9.39a.775.775 0 01-.783-.768c0-.424.35-.767.783-.767zM.775 0h3.18c.429 0 .776.34.776.76 0 .419-.347.759-.775.759H.775A.767.767 0 010 .759C0 .34.347 0 .775 0z"/><path d="M4.741.562l5.288 11.85c.173.385-.02.84-.429 1.017l-.01.005c-.41.177-.872.004-1.045-.38L3.257 1.205c-.172-.384.02-.84.43-1.016.41-.177.882-.01 1.054.374zM11.157 19.937c-1.311 0-2.374-1.042-2.374-2.326 0-1.285 1.063-2.326 2.374-2.326 1.31 0 2.373 1.041 2.373 2.326 0 1.284-1.062 2.326-2.373 2.326zM19.569 19.937c-1.311 0-2.374-1.042-2.374-2.326 0-1.285 1.063-2.326 2.374-2.326 1.31 0 2.373 1.041 2.373 2.326 0 1.284-1.062 2.326-2.373 2.326zM11.458 9.185h10.04c.432 0 .782.344.782.768 0 .423-.35.767-.783.767H11.458a.775.775 0 01-.783-.767c0-.424.35-.768.783-.768zM8.904 3.036h15.039c.432 0 .783.344.783.767 0 .424-.351.768-.783.768H8.904a.775.775 0 01-.783-.768c0-.423.351-.767.783-.767z"/><path d="M9.669 3.48l2.523 5.976c.173.384-.02.839-.43 1.016l-.009.005c-.41.177-.872.005-1.045-.38L8.185 4.123c-.173-.383.02-.838.43-1.015.409-.177.881-.01 1.054.374zM23.178 3.5l-2.45 6.026c-.172.384-.054.788.356.965l.083.056c.41.177.873.004 1.046-.38l2.45-6.026c.172-.383-.02-.838-.43-1.015-.41-.178-.882-.01-1.055.374z"/><path d="M9.431 3.738l2.504 5.935 8.677.171 2.508-6.091z"/></g></svg>