<svg xmlns="http://www.w3.org/2000/svg" fill="none" viewBox="0 0 20 18"><path fill="#1E5BF7" d="M3.861 0a.88.88 0 01.856.67l.679 2.4h13.722a.881.881 0 01.856 1.096l-1.647 6.661a.882.882 0 01-.857.67H6.93a.882.882 0 01-.858-.677l.004.015-2.9-9.07H.883A.883.883 0 01.882 0h2.98zm14.13 4.836H5.89L7.61 9.732h9.17l1.21-4.896zM8.031 12.422a2.465 2.465 0 012.462 2.463 2.466 2.466 0 01-2.462 2.464 2.466 2.466 0 01-2.462-2.464 2.465 2.465 0 012.462-2.463zm0 1.352a1.111 1.111 0 100 2.222 1.111 1.111 0 000-2.222zM16.233 12.422a2.465 2.465 0 012.462 2.463 2.466 2.466 0 01-2.462 2.464 2.465 2.465 0 01-2.463-2.464 2.465 2.465 0 012.463-2.463zm0 1.352a1.111 1.111 0 100 2.222 1.111 1.111 0 000-2.222z"/></svg>