<svg xmlns="http://www.w3.org/2000/svg" viewBox="0 0 44 38"><g fill="none" fill-rule="evenodd"><path fill="#7D27CC" d="M1.603 1.006l7.79-.035a1.466 1.466 0 011.461 1.465l-.138 33.013a1.466 1.466 0 01-1.465 1.461l-7.79.035A1.466 1.466 0 010 35.48L.138 2.467a1.466 1.466 0 011.465-1.461z"/><path fill="#5C1E95" d="M9.294 1.067L9.32.976l-1.567.02-5.963 28.72 7.505-28.65z"/><path fill="#D6D6D6" d="M1.461 36.945l7.79-.035a1.466 1.466 0 001.465-1.461l.044-10.452L.04 24.685 0 35.48a1.466 1.466 0 001.461 1.465z"/><path fill="#CACACA" d="M3.089 24.771l-.285-.028-1.032 4.943z"/><path fill="#3A57FF" d="M11.054.05l7.436 2.017a1.468 1.468 0 011.033 1.79l-8.31 31.652a1.428 1.428 0 01-1.761 1.016l-7.435-2.017a1.468 1.468 0 01-1.033-1.789l8.31-31.652A1.428 1.428 0 0111.054.05z"/><path fill="#273CB7" d="M17.99 1.933l-1.702-.48L4.574 25.144 17.99 1.934z"/><path fill="#E0E0E0" d="M9.452 36.525a1.428 1.428 0 001.76-1.016l2.804-10.737-10.175-2.898L.984 32.72a1.468 1.468 0 001.033 1.789l7.435 2.017z"/><path fill="#019CF4" d="M20.006 1.419l6.758 3.908c.696.406.944 1.302.538 1.998L10.668 36.088a1.466 1.466 0 01-1.998.538l-6.758-3.908a1.466 1.466 0 01-.538-1.998L18.008 1.956a1.466 1.466 0 011.998-.537z"/><path fill="#D1D1D1" d="M6.088 22.501l-.182-.049-1.332 2.692z"/><path fill="#EBEBEB" d="M1.88 32.74l6.758 3.908a1.466 1.466 0 001.998-.538l5.816-10.051-9.487-5.103-5.639 9.757c-.39.725-.142 1.62.555 2.027z"/><path fill="#0067A3" d="M26.509 6.094c.197-.19.428-.324.692-.4a1.926 1.926 0 00-.456-.39l-1.376-.784L6.406 26.318 26.51 6.094zM3.809 31.55l.034.058.029-.017-.063-.04z"/><path fill="#DBDBDB" d="M3.81 31.55l.033.057.029-.017-.063-.04zm6.27-8.93l-.323-.16-3.35 3.858 3.673-3.698z"/><path fill="#1F9E3F" d="M28.528 6.082l5.496 5.522c.556.564.581 1.473.034 2.058L11.1 36.804a1.456 1.456 0 01-2.045-.011L3.558 31.27a1.487 1.487 0 01-.034-2.058L26.5 6.1a1.41 1.41 0 012.029-.018z"/><path fill="#FFB900" d="M35.828 12.64l3.449 5.973a1.72 1.72 0 01-.635 2.367L10.48 37.24a1.72 1.72 0 01-2.367-.635l-3.448-5.973a1.72 1.72 0 01.634-2.367l28.162-16.26a1.72 1.72 0 012.367.635z"/><path fill="#E6E6E6" d="M11.051 21.636l-7.517 7.571a1.43 1.43 0 00.034 2.058l5.497 5.522a1.456 1.456 0 002.046.011l7.4-7.505-7.46-7.657z"/><path fill="#197E33" d="M33.378 11.862a1.55 1.55 0 01.69-.206c-.034-.058-.084-.144-.146-.185l-1.287-1.296-22.081 14.864 22.824-13.177z"/><path fill="#EFEFEF" d="M14.792 22.785L5.3 28.265a1.72 1.72 0 00-.634 2.367l3.448 5.973a1.72 1.72 0 002.367.634l9.493-5.48-5.18-8.974z"/><path fill="#DDD" d="M13.119 23.751l-.158-.14-2.324 1.573z"/><path fill="#FF7F00" d="M40.683 20.023l1.817 6.654a1.72 1.72 0 01-1.215 2.127L9.915 37.37a1.72 1.72 0 01-2.129-1.215L5.97 29.502a1.72 1.72 0 011.215-2.128l31.37-8.566a1.72 1.72 0 012.128 1.215z"/><path fill="#BF8A00" d="M38.511 18.817c.258-.07.5-.068.72-.024a.567.567 0 00-.094-.216l-.916-1.58-25.134 8.762 25.424-6.942z"/><path fill="#EFEFEF" d="M17.76 24.487L7.184 27.374a1.72 1.72 0 00-1.215 2.128l1.817 6.653a1.72 1.72 0 002.127 1.215l10.575-2.887-2.73-9.996z"/><path fill="#C40000" d="M43.497 28.369v6.897a1.72 1.72 0 01-1.732 1.732H9.245a1.72 1.72 0 01-1.732-1.732v-6.897a1.72 1.72 0 011.733-1.733h32.519a1.72 1.72 0 011.732 1.733z"/><path fill="#CD6600" d="M41.72 26.633c.267 0 .5.066.7.166 0-.066 0-.166-.033-.233L41.92 24.8l-26.555 1.833H41.72z"/><path fill="#EFEFEF" d="M20.208 26.636H9.246a1.72 1.72 0 00-1.733 1.733v6.897a1.72 1.72 0 001.733 1.732h10.962V26.636z"/></g></svg>