<svg xmlns="http://www.w3.org/2000/svg" fill="none" viewBox="0 0 12 11"><g clip-path="url(#clip0)"><path fill="#9D9D9D" d="M10.159 0c.97 0 1.758.778 1.758 1.736v5.076c0 .957-.789 1.736-1.758 1.736H5.157l-3.31 2.274-.26.178V8.539C.667 8.41.047 7.723 0 6.812V1.736C0 .778.788 0 1.758 0h8.4zm0 .996h-8.4a.745.745 0 00-.75.74v5.076c0 .407.336.74.75.74h.837v1.54l2.202-1.511.042-.03h5.319a.745.745 0 00.748-.74V1.737a.745.745 0 00-.748-.74z"/></g><defs><clipPath id="clip0"><path fill="#fff" d="M0 0h11.917v11H0z"/></clipPath></defs></svg>