<svg xmlns="http://www.w3.org/2000/svg" viewBox="0 0 34 56"><defs><style>.cls-1{fill:none;stroke:#fff;stroke-miterlimit:10;stroke-width:2px}.cls-2{fill:#fff}</style></defs><title>ic_mouse</title><g id="Layer_2" data-name="Layer 2"><g id="Layer_1-2" data-name="Layer 1"><path class="cls-2" d="M23,2a9,9,0,0,1,9,9V39A15,15,0,0,1,2,39V11a9,9,0,0,1,9-9H23m0-2H11A11,11,0,0,0,0,11V39A17,17,0,0,0,17,56h0A17,17,0,0,0,34,39V11A11,11,0,0,0,23,0Z" /><line class="cls-1" x1="17" y1="2" x2="17" y2="20" /><line class="cls-1" x1="1" y1="20" x2="33" y2="20" /></g></g></svg>