<svg xmlns="http://www.w3.org/2000/svg" fill="none" viewBox="0 0 30 22"><path fill="#1E5BF7" d="M17.354 0a3.241 3.241 0 013.232 3.242v.063h3.828c.233 0 .457.093.621.259l4.707 4.721c.165.166.258.39.258.624v7.91a.88.88 0 01-.879.883h-2.975c-.408 2.018-2.19 3.541-4.32 3.541-2.131 0-3.913-1.523-4.322-3.541h-5.008c-.409 2.018-2.191 3.541-4.321 3.541a4.42 4.42 0 01-4.321-3.541h-.622A3.24 3.24 0 010 14.458V2.655C0 .867 1.45 0 3.232 0h14.122zm4.471 14.16a2.658 2.658 0 00-2.651 2.66c0 1.466 1.19 2.66 2.651 2.66a2.659 2.659 0 002.652-2.66c0-1.467-1.19-2.66-2.652-2.66zm-13.65 0a2.658 2.658 0 00-2.651 2.66c0 1.466 1.189 2.66 2.65 2.66a2.659 2.659 0 002.652-2.66c0-1.467-1.19-2.66-2.651-2.66zM24.05 5.07h-3.464v7.507c.393-.116.809-.18 1.24-.18a4.42 4.42 0 014.32 3.542h2.096V9.203L24.05 5.069zm-6.696-3.306H3.233c-.814 0-1.475.664-1.475 1.48v11.216c0 .816.661 1.48 1.474 1.48h.622c.408-2.018 2.19-3.542 4.32-3.542 2.13 0 3.913 1.524 4.322 3.541h5.008a4.425 4.425 0 011.324-2.358V3.242c0-.815-.661-1.479-1.474-1.479z"/></svg>