<svg xmlns="http://www.w3.org/2000/svg" viewBox="0 0 35 35"><g fill="none" fill-rule="evenodd"><path fill="#FFF" d="M17.5 35C7.835 35 0 27.165 0 17.5S7.835 0 17.5 0 35 7.835 35 17.5 27.165 35 17.5 35z"/><path fill="#EEC051" d="M17 32C8.716 32 2 25.284 2 17 2 8.716 8.716 2 17 2c8.284 0 15 6.716 15 15 0 8.284-6.716 15-15 15z"/><path fill="#F0D78B" d="M17.5 30C10.044 30 4 23.956 4 16.5S10.044 3 17.5 3 31 9.044 31 16.5 24.956 30 17.5 30z"/><path fill="#EEC051" d="M12 10.002c5.19.075 4.47 1.71 5 3.998H7c.455-2.27.283-4.067 5-3.998z"/><path fill="#FFF" d="M13.72 11c.856.751 1.224 1.802 1.28 2.926C15 16.176 13.21 18 11 18s-4-1.824-4-4.074c.052-1.286.385-2.036 1.28-2.926h5.44z"/><path fill="#000" d="M14.68 14c-.928 0-1.68-.789-1.68-1.762S13.552 11 14.48 11c.999 0 1.479.42 1.519 1.804.028.973-.392 1.196-1.32 1.196z"/><path fill="#EEC051" d="M24 10.002c5.19.075 4.47 1.71 5 3.998H19c.455-2.27.283-4.067 5-3.998z"/><path fill="#FFF" d="M25.72 11c.856.751 1.224 1.802 1.28 2.926C27 16.176 25.21 18 23 18s-4-1.824-4-4.074c.052-1.286.385-2.036 1.28-2.926h5.44z"/><path fill="#000" d="M25.68 14c-.928 0-1.68-.789-1.68-1.762S24.552 11 25.48 11c.999 0 1.479.42 1.519 1.804.028.973-.392 1.196-1.32 1.196zM17.5 21c2.744.076 6.556.973 7.5 4-2.185-1.45-4.95-1.763-7.5-1.826-2.361.058-5.52.399-7.5 1.826 1.004-3.03 4.71-3.908 7.5-4z"/></g></svg>