<svg xmlns="http://www.w3.org/2000/svg" viewBox="0 0 35 35"><g fill="none" fill-rule="evenodd"><path fill="#FFF" d="M17.5 35C7.835 35 0 27.165 0 17.5S7.835 0 17.5 0 35 7.835 35 17.5 27.165 35 17.5 35z"/><path fill="#EEC051" d="M17.5 32.614c-8.347 0-15.114-6.767-15.114-15.114 0-8.347 6.767-15.114 15.114-15.114 8.347 0 15.114 6.767 15.114 15.114 0 8.347-6.767 15.114-15.114 15.114z"/><path fill="#F0D78B" d="M17.898 29.432c-7.249 0-13.125-5.876-13.125-13.125S10.649 3.182 17.898 3.182c7.248 0 13.125 5.876 13.125 13.125s-5.877 13.125-13.125 13.125z"/><path fill="#000" d="M9.556 19.106c2.998.878 5.524.757 8.02.817 2.173-.002 4.243-.348 6.41-.49 1.57-.16 2.264.527 2.264 1.376-.222.821-.454 1.136-1.08 1.817-2.353 2.56-4.18 3.383-7.554 3.624-3.337-.074-7.06-.742-8.96-3.804-1.629-2.623-.034-3.484.9-3.34z"/><path fill="#E57283" d="M18.126 23.078c1.567-.02 2.667.707 3.961 1.31 1.045.565.979.356.981.357-1.519.85-3.094 1.46-4.882 1.5-1.875.044-3.725-.246-5.465-1.009l-.79-.385c0-.001.03-.063.028-.064 1.844-1.081 3.477-1.813 6.167-1.709z"/><path fill="#CD5557" d="M13.272 4.773c1.956 0 4.27 2.033 3.13 4.854-2.002 4.953-3.357 8.184-5.637 6.725-6.358-3.747-5.953-3.645-6.45-4.155-.861-.88-1.093-1.789-1.133-2.537 0-1.862 1.586-3.37 3.542-3.37 1.36.04 2.268.57 3.018 1.627.1-1.837 1.683-3.056 3.53-3.144z"/><path fill="#E5727F" d="M13.082 6.364c1.611 0 3.517 1.762 2.578 4.206-1.648 4.293-2.765 7.094-4.642 5.829-5.236-3.247-4.903-3.16-5.313-3.6a3.361 3.361 0 01-.932-2.2A2.92 2.92 0 017.69 7.678c1.12.036 1.868.495 2.485 1.41.083-1.591 1.386-2.647 2.907-2.724z"/><path fill="#CD5557" d="M22.524 4.773c-1.957 0-4.27 2.033-3.131 4.854 2.002 4.953 3.357 8.184 5.637 6.725 6.358-3.747 5.953-3.645 6.451-4.155.86-.88 1.093-1.789 1.133-2.537 0-1.862-1.586-3.37-3.542-3.37-1.361.04-2.269.57-3.018 1.627-.101-1.837-1.684-3.056-3.53-3.144z"/><path fill="#E5727F" d="M23.509 6.364c-1.611 0-3.517 1.762-2.578 4.206 1.648 4.293 2.765 7.094 4.642 5.829 5.236-3.247 4.903-3.16 5.313-3.6.708-.764.9-1.551.932-2.2a2.92 2.92 0 00-2.917-2.921c-1.12.036-1.868.495-2.485 1.41-.083-1.591-1.386-2.647-2.907-2.724z"/></g></svg>