<svg xmlns="http://www.w3.org/2000/svg" viewBox="0 0 35 35"><g fill="none" fill-rule="evenodd"><path fill="#FFF" d="M17.5 35C7.835 35 0 27.165 0 17.5S7.835 0 17.5 0 35 7.835 35 17.5 27.165 35 17.5 35z"/><path fill="#EEC051" d="M17.128 32.021c-8.226 0-14.894-6.668-14.894-14.893 0-8.226 6.668-14.894 14.894-14.894 8.225 0 14.893 6.668 14.893 14.894 0 8.225-6.668 14.893-14.893 14.893z"/><path fill="#F0D78B" d="M17.5 29.043c-7.197 0-13.032-5.835-13.032-13.032 0-7.198 5.835-13.032 13.032-13.032S30.532 8.813 30.532 16.01c0 7.197-5.835 13.032-13.032 13.032z"/><path fill="#000" d="M11.05 22.34h12.9c.345 0 .624.334.624.745s-.279.745-.623.745H11.049c-.344 0-.623-.334-.623-.745s.279-.745.623-.745zM10.426 16.383a2.234 2.234 0 110-4.468 2.234 2.234 0 010 4.468zM24.574 16.383a2.234 2.234 0 110-4.468 2.234 2.234 0 010 4.468z"/></g></svg>