<svg xmlns="http://www.w3.org/2000/svg" fill="none" viewBox="0 0 16 16"><path fill="#fff" fill-rule="evenodd" d="M0 8.03C0 8.62.491 9.1 1.094 9.1h13.814c.3 0 .58-.118.788-.33.196-.2.305-.464.304-.742 0-.59-.491-1.07-1.094-1.07H1.092c-.3 0-.58.118-.787.33-.197.2-.305.464-.305.742zM0 13.624c0 .59.491 1.07 1.094 1.07h13.814c.3 0 .58-.117.788-.33.196-.2.305-.464.304-.742 0-.59-.491-1.07-1.094-1.07H1.092c-.3.001-.58.118-.787.33-.197.2-.305.464-.305.742zM0 2.435c0 .59.491 1.07 1.094 1.07h13.814c.3 0 .58-.117.788-.33.196-.2.305-.464.304-.742 0-.59-.491-1.07-1.094-1.07H1.092c-.3.001-.58.118-.787.33-.197.2-.305.464-.305.742z" clip-rule="evenodd"/><path fill="#fff" fill-rule="evenodd" d="M12 1.833c0-.59.49-1.07 1.093-1.071a1.1 1.1 0 01.758.298c.216.203.336.477.336.77v.543H12v-.54z" clip-rule="evenodd"/><path fill="#fff" fill-rule="evenodd" d="M12 1.071c0-.59.49-1.07 1.093-1.071a1.1 1.1 0 01.758.298c.216.204.336.477.336.77v.543H12v-.54zM14.188 3.356H12v.542c0 .294.12.568.337.77a1.1 1.1 0 00.758.3c.603-.002 1.093-.482 1.092-1.072v-.54zM2.001 7.127h2.187v-.542c0-.293-.12-.567-.336-.77a1.1 1.1 0 00-.758-.299C2.49 5.517 2 5.997 2 6.588v.54zM4.188 9.412c0 .59-.49 1.07-1.093 1.071a1.1 1.1 0 01-.758-.298 1.05 1.05 0 01-.336-.77v-.542h2.187v.54zM7.143 12.644h2.188v-.542c0-.294-.12-.568-.337-.77a1.1 1.1 0 00-.758-.299c-.603 0-1.094.48-1.093 1.071v.54zM9.33 14.39H7.144v.541c0 .294.12.568.337.77a1.1 1.1 0 00.758.299c.603 0 1.093-.48 1.093-1.071v-.54z" clip-rule="evenodd"/></svg>