<svg xmlns="http://www.w3.org/2000/svg" fill="none" viewBox="0 0 22 21"><path stroke="#000" stroke-linecap="round" stroke-linejoin="bevel" stroke-width="2" d="M1 3.316h20M1 11.053h20M1 17.684h20"/><path fill="#000" fill-rule="evenodd" d="M16.625 6.632c-1.036 0-1.875-1.485-1.875-3.316 0-1.831.84-3.316 1.875-3.316C17.66 0 18.5 1.485 18.5 3.316c0 1.831-.84 3.316-1.875 3.316zM5.375 14.368c-1.036 0-1.875-1.484-1.875-3.315 0-1.832.84-3.316 1.875-3.316 1.036 0 1.875 1.484 1.875 3.316 0 1.83-.84 3.315-1.875 3.315zM11.625 21c-1.036 0-1.875-1.484-1.875-3.316 0-1.83.84-3.315 1.875-3.315 1.036 0 1.875 1.484 1.875 3.315 0 1.832-.84 3.316-1.875 3.316z" clip-rule="evenodd"/></svg>