<svg xmlns="http://www.w3.org/2000/svg" viewBox="0 0 27 22"><g fill="#000" fill-rule="evenodd"><path d="M26.074 1.1c0-.66-.434-1.1-1.086-1.1H1.086C.435 0 0 .44 0 1.1v2.2c0 .66.435 1.1 1.086 1.1h23.902c.652 0 1.086-.44 1.086-1.1V1.1zM26.074 9.9c0-.66-.434-1.1-1.086-1.1H1.086C.435 8.8 0 9.24 0 9.9v2.2c0 .66.435 1.1 1.086 1.1h23.902c.652 0 1.086-.44 1.086-1.1V9.9zM26.074 18.7c0-.66-.434-1.1-1.086-1.1H1.086C.435 17.6 0 18.04 0 18.7v2.2c0 .66.435 1.1 1.086 1.1h23.902c.652 0 1.086-.44 1.086-1.1v-2.2z"/></g></svg>