<svg xmlns="http://www.w3.org/2000/svg" viewBox="0 0 483.188 483.188"><g fill="#D9D9D9"><path d="M465.267 344.166c-9.2-.7-28.3 9.7-33.6 12.3-18.7 9.4-44.5 24.1-61.5 35.8-1.2.8-2.8 1.9-4 2.6-7.6 4.9-15.7 8.2-24.7 10.1-49.4 10.5-121.4 11.7-121.4 11.7l-4.2.2c-3.2.2-6-2-6.4-5.1-.5-3.4 2-6.5 5.5-6.8l107.1-10.2c11.8-1.3 21.2-12.3 19.9-24.7-1.3-12.4-12.7-21.5-24.5-20.2l-95.2-1.2c-6.5-.1-16.9-1.7-23.1-3.5-61.4-17.9-96-1.1-114.4 6.7-4.1-6.8-11.9-11.2-20.6-10.6l-41.1 2.7c-13.7.9-24 12.3-23 25.5l6.6 91.2c.9 13.2 12.8 23.1 26.4 22.2l41.1-2.7c8.7-.6 15.7-5.9 18.8-13.2l180.4 7.8c20.1 2.1 38.9-.3 56.6-9.6l5.2-2.7 136.3-79.8c6.7-3.9 11.5-10.7 11.7-18.3.4-9.1-4.9-19.3-17.9-20.2zm-417.1 117.1c-7.7 0-14-6-14-13.5s6.3-13.5 14-13.5 14 6 14 13.5-6.3 13.5-14 13.5z"/><path d="M368.167 372.566c13.9-9.7 42.4-25.2 58.5-33.3 4.9-2.4 10-4.9 15.5-6.8-7-4.7-14.5-4.9-22.3-1.9-15.3 6.1-43.5 19.7-57.9 27.5-.1.2-.2.4-.2.6 1 3 1.8 6.1 2.1 9.3.3 2.6.2 5.1.1 7.6 1.3-1 2.7-2 4.2-3zM404.967 321.466c-7-4.5-14.4-4.7-22-1.7-9.5 3.7-30.6 10.6-40 15.6 4 2.5 7.6 5.6 10.7 9.2.6-.4 1.2-.9 1.9-1.3l6.9-3.8c10-5.5 31.5-13.1 42.5-18zM391.267 144.066c26.7-11.4 45.5-38 45.5-68.9 0-41.4-33.6-74.9-74.9-74.9s-74.9 33.6-74.9 74.9c0 .4.1.8.1 1.2 44.5 4.7 82.7 30.8 104.2 67.7zM272.767 321.566c60.1 0 108.8-48.7 108.8-108.8s-48.7-108.8-108.8-108.8-108.8 48.7-108.8 108.8 48.7 108.8 108.8 108.8zm-38-65.8c1-3.6 2-7.2 3.1-10.7 1.3-4.1 2.4-4.6 6.2-2.7 6.5 3.4 13.3 5.2 20.5 6.1 4.6.6 9.2.1 13.4-1.8 8-3.5 9.3-12.8 2.5-18.3-2.3-1.9-4.9-3.3-7.6-4.5-7-3.1-14.3-5.4-21-9.4-10.7-6.4-17.6-15.3-16.8-28.3.9-14.8 9.3-24 22.8-28.9 5.6-2 5.6-2 5.7-7.8v-5.9c.1-4.4.9-5.2 5.2-5.3h4.1c9.3 0 9.3 0 9.4 9.3 0 6.6 0 6.6 6.6 7.7 5 .8 9.9 2.3 14.5 4.3 2.6 1.1 3.5 2.9 2.8 5.6-1.2 4-2.3 8.1-3.6 12.1-1.2 3.8-2.4 4.3-6.1 2.6-7.3-3.5-15-5-23-4.6-2.1.1-4.2.4-6.1 1.3-7 3-8.1 10.7-2.2 15.5 3 2.4 6.4 4.1 10 5.6 6.2 2.6 12.4 5 18.2 8.2 18.7 10.3 23.7 33.8 10.5 49.7-4.8 5.8-10.9 9.7-18.1 11.6-3.1.9-4.6 2.5-4.4 5.8.1 3.2 0 6.4 0 9.6 0 2.9-1.5 4.4-4.3 4.5-3.5.1-6.9.1-10.4 0-3-.1-4.5-1.8-4.5-4.7 0-2.3 0-4.7-.1-7-.1-5.2-.2-5.4-5.2-6.2-6.4-1-12.6-2.5-18.5-5.3-4.5-2.1-4.9-3.3-3.6-8.1z"/></g></svg>