<svg xmlns="http://www.w3.org/2000/svg" fill="none" viewBox="0 0 24 22"><path fill="#000" d="M17.465 0c1.845 0 3.533.786 4.748 2.211C23.367 3.564 24 5.371 24 7.297c0 2.096-.79 4.039-2.464 6.098-.691.85-1.547 1.742-2.651 2.785-.847.8-1.577 1.453-3.355 3.018a265.213 265.213 0 00-2.825 2.512l-.03.028a1.004 1.004 0 01-1.35 0l-.03-.027a260.198 260.198 0 00-2.825-2.512c-1.778-1.567-2.508-2.22-3.355-3.02-1.104-1.042-1.96-1.934-2.651-2.784C.789 11.335 0 9.393 0 7.297c0-1.926.633-3.733 1.786-5.086C3.001.786 4.69 0 6.535 0c1.207 0 2.28.345 3.222.974.762.51 1.406 1.183 1.941 1.964.212.32.112.16.302.48.19-.32.09-.16.302-.48.535-.78 1.179-1.454 1.94-1.964A5.686 5.686 0 0117.466 0zm0 2.118c-.8 0-1.51.234-2.143.664-.52.353-.969.828-1.348 1.38a7.902 7.902 0 00-1 2.056c-.137.435-.53.73-.974.73-.444 0-.837-.295-.974-.73a7.902 7.902 0 00-1-2.055c-.379-.553-.828-1.028-1.349-1.381a3.728 3.728 0 00-2.142-.664 4.16 4.16 0 00-3.211 1.494c-.82.963-1.275 2.271-1.275 3.685 0 1.628.665 3.135 2.076 4.844.634.767 1.423 1.584 2.453 2.552.801.752 1.497 1.374 3.22 2.893.736.648 1.472 1.295 2.202 1.95.73-.654 1.465-1.302 2.2-1.95 1.725-1.518 2.42-2.14 3.222-2.893 1.03-.968 1.819-1.785 2.453-2.552 1.411-1.709 2.076-3.216 2.076-4.844 0-1.414-.454-2.722-1.275-3.685a4.16 4.16 0 00-3.211-1.494z"/></svg>