<svg xmlns="http://www.w3.org/2000/svg" fill="none" viewBox="0 0 21 19"><path fill="#fff" d="M15.282 0c1.614 0 3.092.679 4.155 1.91C20.446 3.078 21 4.638 21 6.302c0 1.81-.69 3.488-2.156 5.266-.605.734-1.353 1.505-2.32 2.405-.741.691-1.38 1.255-2.935 2.607a230.667 230.667 0 00-2.472 2.17l-.026.023a.885.885 0 01-1.182 0l-.026-.023a226.597 226.597 0 00-2.472-2.17c-1.555-1.352-2.194-1.916-2.935-2.606-.967-.9-1.716-1.672-2.32-2.405C.69 9.79 0 8.111 0 6.301 0 4.638.554 3.078 1.563 1.91A5.422 5.422 0 015.718 0c1.056 0 1.996.298 2.82.841.666.44 1.23 1.022 1.698 1.696a.32.32 0 00.528 0c.468-.674 1.032-1.256 1.699-1.696A5.022 5.022 0 0115.282 0zm0 1.83c-.7 0-1.322.201-1.875.572a4.531 4.531 0 00-1.18 1.193 6.791 6.791 0 00-.875 1.775A.899.899 0 0110.5 6a.899.899 0 01-.852-.631 6.79 6.79 0 00-.875-1.775 4.527 4.527 0 00-1.18-1.193 3.292 3.292 0 00-1.875-.572 3.66 3.66 0 00-2.81 1.29c-.718.83-1.115 1.96-1.115 3.182 0 1.406.582 2.708 1.816 4.183.555.663 1.246 1.368 2.147 2.204.7.65 1.31 1.188 2.818 2.499a2.94 2.94 0 003.852 0c1.508-1.312 2.117-1.849 2.818-2.499.901-.836 1.592-1.541 2.146-2.204 1.235-1.475 1.817-2.777 1.817-4.183 0-1.221-.398-2.351-1.116-3.183a3.66 3.66 0 00-2.81-1.29z"/><path fill="#fff" d="M14.826 1c1.46 0 2.798.572 3.76 1.608.913.984 1.414 2.298 1.414 3.7 0 1.523-.625 2.936-1.95 4.434-.548.618-1.225 1.267-2.1 2.025-.67.582-1.248 1.057-2.655 2.195-1.088.88-1.585 1.286-2.237 1.827l-.024.02A.835.835 0 0110.5 17a.836.836 0 01-.535-.19l-.023-.02c-.653-.543-1.154-.951-2.237-1.827-1.407-1.14-1.985-1.614-2.656-2.196-.874-.758-1.551-1.407-2.098-2.025C1.625 9.244 1 7.832 1 6.307c0-1.401.501-2.715 1.414-3.699C3.376 1.572 4.714 1 6.174 1c.955 0 1.805.25 2.55.708.604.371 1.114.861 1.537 1.429a.297.297 0 00.478 0 5.553 5.553 0 011.537-1.429A4.788 4.788 0 0114.826 1zm0 1.54c-.633 0-1.195.17-1.696.483a3.964 3.964 0 00-1.067 1.004 5.563 5.563 0 00-.792 1.495.809.809 0 01-.771.532.808.808 0 01-.771-.532 5.564 5.564 0 00-.792-1.495A3.962 3.962 0 007.87 3.023a3.137 3.137 0 00-1.696-.482c-.99 0-1.892.385-2.543 1.086-.65.7-1.009 1.652-1.009 2.68 0 1.184.526 2.28 1.644 3.523.502.558 1.126 1.152 1.942 1.855.634.548 1.185 1 2.55 2.105 1.013.821 2.47.82 3.484 0 1.365-1.104 1.916-1.557 2.55-2.104.815-.704 1.44-1.298 1.942-1.856 1.117-1.243 1.644-2.339 1.644-3.523 0-1.028-.36-1.98-1.01-2.68-.65-.701-1.551-1.086-2.542-1.086z"/><path fill="#fff" d="M14.37 2c1.308 0 2.504.465 3.365 1.307A4.174 4.174 0 0119 6.312c0 1.238-.559 2.386-1.745 3.603-.49.502-1.096 1.03-1.878 1.646-.6.472-1.117.858-2.377 1.783-.973.716-1.417 1.045-2 1.485l-.022.016A.795.795 0 0110.5 15a.796.796 0 01-.478-.155L10 14.829c-.584-.44-1.032-.772-2.002-1.484-1.259-.926-1.776-1.312-2.376-1.784-.782-.616-1.388-1.144-1.878-1.646C2.56 8.698 2 7.55 2 6.312c0-1.138.449-2.206 1.265-3.005C4.125 2.465 5.322 2 6.63 2c.855 0 1.616.204 2.282.575.54.302.996.7 1.375 1.161.108.136.32.136.428 0 .379-.461.835-.86 1.375-1.16A4.614 4.614 0 0114.37 2zm0 1.252c-.565 0-1.069.138-1.517.392-.368.209-.686.489-.955.816-.334.407-.566.84-.708 1.214-.097.258-.376.432-.69.432-.314 0-.593-.174-.69-.432a4.395 4.395 0 00-.708-1.214 3.432 3.432 0 00-.956-.816 3.02 3.02 0 00-1.517-.392c-.886 0-1.692.313-2.275.882a3.018 3.018 0 00-.902 2.178c0 .962.47 1.853 1.47 2.862.45.454 1.008.936 1.738 1.508.567.445 1.06.812 2.28 1.71.927.68 2.193.68 3.119 0a86.597 86.597 0 002.281-1.71c.73-.572 1.289-1.054 1.738-1.508 1-1.01 1.47-1.9 1.47-2.862 0-.836-.321-1.609-.902-2.178-.583-.57-1.389-.882-2.275-.882z"/><path fill="#fff" d="M2.5 2.5l17.5 1-3 8-6 6-10.5-9 2-6z"/><path fill="#C00" d="M15.282 0c1.614 0 3.092.679 4.155 1.91C20.446 3.078 21 4.638 21 6.302c0 1.81-.69 3.488-2.156 5.266-.605.734-1.353 1.505-2.32 2.405-.741.691-1.38 1.255-2.935 2.607a230.667 230.667 0 00-2.472 2.17l-.026.023a.885.885 0 01-1.182 0l-.026-.023a226.597 226.597 0 00-2.472-2.17c-1.555-1.352-2.194-1.916-2.935-2.606-.967-.9-1.716-1.672-2.32-2.405C.69 9.79 0 8.111 0 6.301 0 4.638.554 3.078 1.563 1.91A5.422 5.422 0 015.718 0c1.056 0 1.996.298 2.82.841.666.44 1.23 1.022 1.698 1.696a.32.32 0 00.528 0c.468-.674 1.032-1.256 1.699-1.696A5.022 5.022 0 0115.282 0zm0 1.83c-.7 0-1.322.201-1.875.572a4.531 4.531 0 00-1.18 1.193 6.791 6.791 0 00-.875 1.775A.899.899 0 0110.5 6a.899.899 0 01-.852-.631 6.79 6.79 0 00-.875-1.775 4.527 4.527 0 00-1.18-1.193 3.292 3.292 0 00-1.875-.572 3.66 3.66 0 00-2.81 1.29c-.718.83-1.115 1.96-1.115 3.182 0 1.406.582 2.708 1.816 4.183.555.663 1.246 1.368 2.147 2.204.7.65 1.31 1.188 2.818 2.499a2.94 2.94 0 003.852 0c1.508-1.312 2.117-1.849 2.818-2.499.901-.836 1.592-1.541 2.146-2.204 1.235-1.475 1.817-2.777 1.817-4.183 0-1.221-.398-2.351-1.116-3.183a3.66 3.66 0 00-2.81-1.29z"/></svg>