<svg xmlns="http://www.w3.org/2000/svg" viewBox="0 0 11 23"><g fill="#99989D" fill-rule="evenodd"><path d="M9.673 21.848c-.978.375-1.757.66-2.34.857-.583.197-1.26.295-2.031.295-1.185 0-2.107-.281-2.763-.843-.656-.56-.983-1.272-.983-2.137 0-.336.024-.68.072-1.03.05-.35.129-.744.237-1.186L3.089 13.6c.108-.403.201-.786.275-1.142.074-.36.11-.69.11-.99 0-.535-.114-.91-.341-1.12-.23-.212-.663-.315-1.308-.315-.316 0-.64.045-.974.14-.33.1-.616.188-.851.276l.323-1.295c.802-.317 1.57-.59 2.301-.814A6.978 6.978 0 014.7 8c1.176 0 2.084.278 2.722.829.636.551.956 1.269.956 2.15 0 .184-.022.506-.066.965a6.291 6.291 0 01-.244 1.268l-1.218 4.19c-.1.336-.189.72-.27 1.15-.078.43-.117.759-.117.979 0 .557.128.936.385 1.138.254.202.7.303 1.33.303.298 0 .631-.051 1.008-.151.373-.1.643-.19.814-.266l-.327 1.293zM10.121 5.126A2.89 2.89 0 018.007 6a2.919 2.919 0 01-2.123-.874A2.881 2.881 0 015 3.007c0-.826.299-1.536.884-2.124A2.9 2.9 0 018.007 0c.824 0 1.53.293 2.114.883.585.588.879 1.298.879 2.124a2.88 2.88 0 01-.879 2.12z"/></g></svg>