<svg xmlns="http://www.w3.org/2000/svg" viewBox="0 0 23 12"><path fill="#fff" fill-rule="evenodd" d="M12.572.573c.597.1.73.33.811.847l.004 3.617c-.007.2.117.793.534.924.335.095.555-.136.755-.318.908-.829 1.555-1.806 2.134-2.818.256-.446.476-.908.69-1.37.16-.343.407-.51.856-.505L22 .954c.108 0 .217 0 .323.016.615.09.783.318.593.833-.3.81-.88 1.484-1.448 2.16-.61.724-1.259 1.423-1.862 2.15-.554.664-.51.999.178 1.576.762.64 1.569 1.242 2.253 1.949.303.312.588.635.806.999.31.518.03 1.086-.51 1.117h-3.35c-.864.06-1.553-.24-2.133-.748-.464-.405-.894-.838-1.34-1.258a3.031 3.031 0 00-.603-.461c-.457-.255-.853-.177-1.115.233-.267.417-.328.88-.353 1.345-.036.679-.275.856-1.067.888-1.694.069-3.3-.152-4.794-.887C6.26 10.22 5.24 9.305 4.352 8.27 2.622 6.253 1.297 4.039.106 1.76-.162 1.249.034.974.692.964 1.785.945 2.88.947 3.972.962c.445.006.74.225.91.586.591 1.25 1.316 2.44 2.223 3.542.242.294.489.587.84.794.389.23.684.154.867-.219.118-.237.168-.49.193-.743.087-.87.098-1.738-.053-2.604-.093-.542-.448-.892-1.076-.994-.32-.052-.273-.154-.117-.311.27-.272.523-.44 1.028-.44h3.785z"/></svg>