<svg xmlns="http://www.w3.org/2000/svg" xmlns:xlink="http://www.w3.org/1999/xlink" viewBox="0 0 114 113"><defs><path id="a" d="M113.283 56.435c0 31.168-25.266 56.434-56.434 56.434C25.68 112.869.414 87.603.414 56.435S25.68 0 56.849 0c31.168 0 56.434 25.267 56.434 56.435"/></defs><g fill="none" fill-rule="evenodd"><g><mask id="b" fill="#fff"><use xlink:href="#a"/></mask><path fill="#2CA5E0" d="M113.283 56.435c0 31.168-25.266 56.434-56.434 56.434C25.68 112.869.414 87.603.414 56.435S25.68 0 56.849 0c31.168 0 56.434 25.267 56.434 56.435" mask="url(#b)"/></g><path fill="#FFFFFE" d="M81.179 31.645c-.214 0-.436.039-.656.122L23.725 53.349c-1.605.609-1.562 2.894.064 3.444l13.169 4.45 7.94 15.892.007.013.021.043.006-.003a.86.86 0 00.763.483c.188 0 .38-.063.546-.204l7.44-6.308-8.307-6.304.65 8.279-5.971-12.363L71.79 41.708 45.374 64.855l20.564 15.606a3.708 3.708 0 002.251.764c1.632 0 3.201-1.071 3.642-2.837l11.117-44.467c.301-1.205-.64-2.276-1.769-2.276"/></g></svg>