<svg xmlns="http://www.w3.org/2000/svg" viewBox="0 0 633 668"><g fill="none" fill-rule="evenodd"><path fill="#665CAC" fill-rule="nonzero" d="M560.7 65.7C544.1 50.5 477.2 1.9 328.2 1.2c0 0-175.8-10.6-261.5 68C19 116.9 2.2 186.7.5 273.3-1.3 359.9-3.6 522 152.8 566h.1l-.1 67.1s-1 27.2 16.9 32.7c21.6 6.7 34.3-13.9 55-36.2 11.3-12.2 27-30.2 38.8-43.9 106.9 9 189.2-11.6 198.5-14.6 21.6-7 143.8-22.7 163.6-184.8 20.5-167.1-10-272.9-64.9-320.6zm18.1 308.6c-16.8 135.4-115.9 144-134.1 149.8-7.8 2.5-80 20.5-170.8 14.5 0 0-67.7 81.6-88.8 102.9-3.3 3.3-7.2 4.7-9.8 4-3.6-.9-4.6-5.2-4.6-11.5.1-9 .6-111.5.6-111.5-.1 0-.1 0 0 0-132.2-36.7-124.5-174.8-123-247.1 1.5-72.3 15.1-131.5 55.4-171.3 72.5-65.6 221.8-55.8 221.8-55.8C451.6 48.9 512 86.8 526 99.5c46.4 39.9 70.1 135.2 52.8 274.8z"/><path stroke="#665CAC" stroke-linecap="round" stroke-linejoin="round" stroke-width="16.8562" d="M389.5 269.6c-1.6-33.1-18.4-50.4-50.4-52.1M432.7 284.1c.7-30.8-8.4-56.5-27.4-77.2-19-20.7-45.3-32.2-79.1-34.6"/><path stroke="#665CAC" stroke-linecap="round" stroke-linejoin="round" stroke-width="16.8562" d="M477 301.4c-.4-53.5-16.4-95.5-47.9-126.3-31.5-30.7-70.8-46.3-117.7-46.6"/><path fill="#665CAC" fill-rule="nonzero" d="M340.8 382.5s11.9 1 18.2-6.9l12.4-15.6c6-7.8 20.5-12.7 34.7-4.8 7.9 4.5 22.1 13.2 30.9 19.7 9.4 6.9 28.7 23 28.7 23 9.2 7.7 11.3 19.1 5.1 31.1 0 .1-.1.2-.1.2-6.4 11.3-15 22-25.9 31.9l-.2.2c-8.9 7.4-17.7 11.7-26.3 12.7-1 .2-2.3.3-3.8.2-3.8 0-7.5-.5-11.2-1.7l-.3-.4c-13.3-3.7-35.4-13.1-72.3-33.4-24-13.2-43.9-26.7-60.7-40.1-8.9-7-18-15-27.3-24.2l-.9-.9-.9-.9-.9-.9-.9-.9c-9.2-9.3-17.2-18.4-24.2-27.3-13.4-16.8-26.9-36.8-40.1-60.7-20.3-36.9-29.7-59-33.4-72.3l-.4-.3c-1.2-3.7-1.8-7.4-1.7-11.2-.1-1.5 0-2.8.2-3.8 1-8.6 5.3-17.4 12.7-26.3l.2-.2c9.9-10.9 20.5-19.5 31.9-25.9.1 0 .2-.1.2-.1 12-6.2 23.4-4.1 31.1 5.1.1.1 16.1 19.3 23 28.7 6.5 8.9 15.3 23 19.7 30.9 7.9 14.2 3 28.7-4.8 34.7l-15.6 12.4c-7.9 6.4-6.9 18.2-6.9 18.2s23.2 87.7 109.8 109.8z"/></g></svg>