<svg xmlns="http://www.w3.org/2000/svg" viewBox="0 0 263.52 40.933"><g fill="#FFBF00"><path d="M8.22 40.934l2.54-14.81L0 15.635l14.87-2.16L21.52 0l6.65 13.475 14.87 2.16-10.76 10.489 2.54 14.81-13.3-6.993zM64.7 40.934l2.54-14.81-10.76-10.489 14.87-2.16L78 0l6.65 13.475 14.87 2.16-10.76 10.489 2.54 14.81L78 33.941zM118.7 40.934l2.54-14.81-10.76-10.489 14.87-2.16L132 0l6.65 13.475 14.87 2.16-10.76 10.489 2.54 14.81-13.3-6.993zM174.7 40.934l2.54-14.81-10.76-10.489 14.87-2.16L188 0l6.65 13.475 14.87 2.16-10.76 10.489 2.54 14.81-13.3-6.993zM228.7 40.934l2.54-14.81-10.76-10.489 14.87-2.16L242 0l6.65 13.475 14.87 2.16-10.76 10.489 2.54 14.81-13.3-6.993z"/></g></svg>