<svg xmlns="http://www.w3.org/2000/svg" fill="none" viewBox="0 0 17 18"><path fill="#C00" d="M10.624 0c.592 0 1.073.482 1.073 1.073v1.639h4.753c.097 0 .176.079.176.176v.85a.176.176 0 01-.176.177h-1.216c-.055 0-.1.042-.106.097l-1.17 13.291a.602.602 0 01-.598.55H3.242a.602.602 0 01-.6-.55L1.475 4.013a.106.106 0 00-.105-.097H.176A.176.176 0 010 3.74v-.85c0-.098.079-.177.176-.177H4.93V1.073C4.929.482 5.41 0 6.002 0h4.622zm3.19 3.915H2.788a.106.106 0 00-.106.115l1.102 12.523c.005.054.05.096.106.096h8.82c.055 0 .101-.042.106-.096L13.919 4.03a.106.106 0 00-.106-.115zM10.62 6.187l.85.03a.176.176 0 01.17.183l-.286 7.808a.176.176 0 01-.183.17l-.85-.031a.176.176 0 01-.17-.183l.286-7.808a.176.176 0 01.183-.17zm-4.614 0a.176.176 0 01.183.17l.286 7.807a.176.176 0 01-.17.183l-.85.03a.176.176 0 01-.183-.17L4.986 6.4a.176.176 0 01.17-.183l.85-.03zm2.732.015c.098 0 .177.08.177.177v7.807a.176.176 0 01-.177.176h-.85a.176.176 0 01-.177-.176V6.379c0-.098.08-.177.177-.177h.85zm1.65-4.999h-4.15a.106.106 0 00-.106.106v1.403h4.362V1.309a.106.106 0 00-.106-.106z"/></svg>