<svg xmlns="http://www.w3.org/2000/svg" viewBox="0 0 14 14"><path d="M6.999 4.495a2.524 2.524 0 00-2.52 2.529 2.524 2.524 0 002.52 2.528 2.524 2.524 0 002.52-2.528 2.524 2.524 0 00-2.52-2.529zm6.999 3a.931.931 0 01-.929.933h-.642l-.001.006a.468.468 0 00-.368.283l-.304.672a.473.473 0 00.078.489.186.186 0 01-.011.019l.438.44a.937.937 0 010 1.322l-.659.661a.931.931 0 01-1.318.001l-.443-.445-.012.006a.471.471 0 00-.437-.043l-.689.26a.469.469 0 00-.286.365l-.016.006v.593c0 .03-.002.061-.004.091l-.002.015a.934.934 0 01-.927.832h-.929a.936.936 0 01-.934-.938v-.605l-.075-.02a.472.472 0 00-.271-.307l-.675-.309a.466.466 0 00-.42.027.283.283 0 01-.024-.013l-.435.437a.928.928 0 01-1.318 0l-.659-.661a.938.938 0 010-1.323l.459-.46-.025-.044a.47.47 0 00.006-.37l-.257-.693a.464.464 0 00-.284-.268l-.022-.084H.929A.931.931 0 010 7.437v-.933c0-.515.416-.933.929-.933H1.643l.011-.037a.473.473 0 00.252-.253l.308-.675a.473.473 0 00-.006-.38l.034-.059-.503-.505a.937.937 0 010-1.322l.659-.662a.93.93 0 011.318 0l.309.31a.46.46 0 00.171.171l.04.041.02-.011a.466.466 0 00.352-.001l.689-.257a.462.462 0 00.266-.285l.036-.01v-.7L5.6.907l.019-.165A.935.935 0 016.532 0h.929c.515 0 .933.419.933.936v.468a.468.468 0 00.269.558l.667.304a.464.464 0 00.474-.067l.014.007.446-.449.225-.18a.932.932 0 011.124.149l.659.662a.937.937 0 010 1.322l-.463.465a.11.11 0 00.006.011.473.473 0 00-.051.449l.258.69a.468.468 0 00.391.29l.004.015h.63l.245.027a.934.934 0 01.706.906v.932z"/></svg>