<svg xmlns="http://www.w3.org/2000/svg" data-name="Слой 1" viewBox="0 0 12 12"><path fill="#898989" d="M11.43 6.78a5.72 5.72 0 00.05-.78A5.54 5.54 0 006 .47a5.4 5.4 0 00-.89.07A3.24 3.24 0 003.29 0 3.31 3.31 0 000 3.34a3.36 3.36 0 00.53 1.81A5.62 5.62 0 00.46 6 5.5 5.5 0 007 11.5a3.25 3.25 0 001.74.5A3.31 3.31 0 0012 8.66a3.36 3.36 0 00-.57-1.88zm-4.94 3.35a3.89 3.89 0 01-3.32-1c-.84-.8-.5-1.71.18-1.75s1.09.79 1.46 1 1.75.76 2.48-.09-.53-1.4-1.5-1.55c-1.39-.21-3.14-1-3-2.47a2.56 2.56 0 012.42-2.38 4 4 0 013.25.9c.89.77.41 1.64-.16 1.71S7.1 3.22 5.85 3.2 3.69 4.56 5.28 5s3.3.55 3.91 2-1 3-2.71 3.14zm0 0"/></svg>