<svg xmlns="http://www.w3.org/2000/svg" data-name="Слой 1" viewBox="0 0 24 24"><path fill="#898989" d="M8.79.45A12 12 0 0012 24a12.15 12.15 0 003.21-.44A12 12 0 108.79.45zM7.88 2a20.52 20.52 0 00-1.71 4.47H2.71A10.84 10.84 0 017.88 2zM2.1 7.63h3.81a22.05 22.05 0 00-.4 3.79H1.2a10.91 10.91 0 01.9-3.79zm-.9 5h4.32A21.36 21.36 0 006 16.37H2.1a10.94 10.94 0 01-.9-3.79zm1.51 5h3.55A20.4 20.4 0 008.1 22.1a10.87 10.87 0 01-5.39-4.56zm8.71 5.27a11.12 11.12 0 01-1.66-.21 19.19 19.19 0 01-2.3-5.06h4zm0-6.44H7.16a20.73 20.73 0 01-.47-3.78h4.73zm0-4.95H6.68a20.69 20.69 0 01.41-3.79h4.33zm0-5H7.37a19.37 19.37 0 012.14-5 10.87 10.87 0 011.91-.28zM16.13 22a20.87 20.87 0 001.71-4.48h3.46A10.92 10.92 0 0116.13 22zm5.77-5.65h-3.8a21.92 21.92 0 00.4-3.78h4.3a10.62 10.62 0 01-.9 3.78zm.9-4.95h-4.32A21.79 21.79 0 0018 7.63h3.9a10.65 10.65 0 01.9 3.79zm-1.5-5h-3.55a20.37 20.37 0 00-1.85-4.49 10.86 10.86 0 015.4 4.56zm-8.72-5.21a11.13 11.13 0 011.66.21 19.11 19.11 0 012.3 5.06h-4zm0 6.44h4.26a21.24 21.24 0 01.47 3.79h-4.73zm0 5h4.75a21.49 21.49 0 01-.42 3.79h-4.33zm0 5h4.05a19.37 19.37 0 01-2.14 5 10.87 10.87 0 01-1.91.28z"/></svg>