<svg xmlns="http://www.w3.org/2000/svg" viewBox="0 0 266.514 266.514"><path fill="#ccc" d="M0 40.794v184.928c90.794 34.495 175.72-34.495 266.514 0V40.794C175.72 6.294 90.794 75.289 0 40.794zm48.952 180.191c-15.229-.702-22.844-1.855-38.073-7.19v-32.634c15.229 5.336 22.844 6.489 38.073 7.19v32.634zm0-119.66c-15.229-.702-22.844-1.855-38.073-7.19V61.501c15.229 5.336 22.844 6.489 38.073 7.19v32.634zm70.707 111.164c-15.229 3.378-22.844 5.058-38.073 6.973v-32.634c15.229-1.915 22.844-3.595 38.073-6.973v32.634zm0-119.659c-15.229 3.378-22.844 5.058-38.073 6.973V67.169c15.229-1.915 22.844-3.595 38.073-6.973V92.83zm65.269 106.524c-16.317 1.915-22.844 3.595-38.073 6.973v-32.634c15.229-3.378 21.756-5.058 38.073-6.973v32.634zM146.855 86.662V54.028c15.229-3.378 22.844-5.058 38.073-6.973v32.634c-15.229 1.92-22.844 3.595-38.073 6.973zm70.708-41.131c16.317.702 21.756 1.855 38.073 7.19v32.634c-16.317-5.336-21.756-6.489-38.073-7.19V45.531zm0 119.66c16.317.702 21.756 1.855 38.073 7.19v32.634c-16.317-5.336-21.756-6.489-38.073-7.19v-32.634z"/></svg>