<svg xmlns="http://www.w3.org/2000/svg" fill="none" viewBox="0 0 22 16"><path fill="#000" d="M11 16h-.007c-.663-.005-6.532-.059-8.195-.511a3.41 3.41 0 01-2.392-2.406C-.03 11.439-.002 8.274 0 8.022 0 7.77-.029 4.579.404 2.922l.002-.005C.716 1.761 1.653.81 2.796.495l.008-.003C4.448.058 10.328.005 10.994 0h.011c.666.005 6.55.058 8.197.512a3.41 3.41 0 012.39 2.402c.451 1.659.41 4.857.405 5.127.003.265.03 3.402-.403 5.054l-.001.005a3.412 3.412 0 01-2.394 2.406l-.005.001c-1.643.435-7.524.488-8.189.493H11zM2.065 3.365C1.684 4.828 1.72 7.978 1.72 8.01v.023c-.011.874.029 3.404.346 4.602a1.681 1.681 0 001.18 1.184c1.226.334 6.006.439 7.753.451 1.752-.012 6.539-.114 7.756-.435a1.682 1.682 0 001.178-1.183c.317-1.216.357-3.734.345-4.602v-.027c.016-.885-.015-3.444-.344-4.652v-.004a1.682 1.682 0 00-1.181-1.186c-1.215-.334-6.003-.439-7.754-.451-1.75.012-6.532.114-7.754.434a1.73 1.73 0 00-1.18 1.201zm18.697 9.51zM8.809 11.502V4.497L14.824 8 8.81 11.503z"/></svg>