<svg xmlns="http://www.w3.org/2000/svg" fill="none" viewBox="0 0 12 12"><g fill="#9D9D9D" clip-path="url(#clip0)"><path d="M11.924 5.767C11.817 5.62 9.262 2.176 6 2.176 2.738 2.176.183 5.62.076 5.766a.396.396 0 000 .467C.183 6.38 2.738 9.824 6 9.824c3.262 0 5.816-3.444 5.924-3.59a.395.395 0 000-.467zM6 9.033C3.597 9.033 1.516 6.747.9 6c.615-.748 2.692-3.033 5.1-3.033 2.403 0 4.484 2.286 5.1 3.033-.615.748-2.692 3.033-5.1 3.033z"/><path d="M6 3.626A2.376 2.376 0 003.626 6 2.376 2.376 0 006 8.374 2.376 2.376 0 008.374 6 2.376 2.376 0 006 3.626zm0 3.956c-.872 0-1.582-.71-1.582-1.582 0-.873.71-1.582 1.582-1.582.873 0 1.583.71 1.583 1.582 0 .873-.71 1.582-1.583 1.582z"/></g><defs><clipPath id="clip0"><path fill="#fff" d="M0 0h12v12H0z" transform="matrix(-1 0 0 1 12 0)"/></clipPath></defs></svg>