<svg xmlns="http://www.w3.org/2000/svg" fill="none" viewBox="0 0 19 19"><path fill="#000" d="M18.192 17.223L13.76 12.61a7.502 7.502 0 001.765-4.836c0-4.149-3.374-7.524-7.52-7.524C3.857.25.484 3.625.484 7.774c0 4.148 3.373 7.523 7.52 7.523 1.556 0 3.04-.47 4.308-1.361l4.467 4.648a.973.973 0 00.706.3.983.983 0 00.707-1.662zM8.004 2.213a5.566 5.566 0 015.558 5.56 5.566 5.566 0 01-5.558 5.562 5.566 5.566 0 01-5.559-5.561 5.566 5.566 0 015.559-5.561z"/><rect width="1.84554" height="6.27483" x="7.127" y="4.679" fill="#000" rx=".92277"/><rect width="1.84554" height="6.27483" x="4.913" y="8.739" fill="#000" rx=".92277" transform="rotate(-90 4.913 8.74)"/></svg>